<svg xmlns="http://www.w3.org/2000/svg" xmlns:xlink="http://www.w3.org/1999/xlink" width="169" zoomAndPan="magnify" viewBox="0 0 126.75 32.999998" height="44" preserveAspectRatio="xMidYMid meet" version="1.0"><defs><g/><clipPath id="de204daee1"><path d="M 14 1 L 34 1 L 34 24 L 14 24 Z M 14 1 " clip-rule="nonzero"/></clipPath><clipPath id="97e60f33e7"><path d="M 13.273438 2.492188 L 32.574219 0.00390625 L 35.445312 22.277344 L 16.140625 24.761719 Z M 13.273438 2.492188 " clip-rule="nonzero"/></clipPath><clipPath id="e2554e8054"><path d="M 13.273438 2.492188 L 32.574219 0.00390625 L 35.445312 22.277344 L 16.140625 24.761719 Z M 13.273438 2.492188 " clip-rule="nonzero"/></clipPath><clipPath id="a8d5143de2"><path d="M 14 1 L 35 1 L 35 24 L 14 24 Z M 14 1 " clip-rule="nonzero"/></clipPath><clipPath id="54a3295235"><path d="M 13.273438 2.492188 L 32.574219 0.00390625 L 35.445312 22.277344 L 16.140625 24.761719 Z M 13.273438 2.492188 " clip-rule="nonzero"/></clipPath><clipPath id="352bbf1ca4"><path d="M 13.273438 2.492188 L 32.574219 0.00390625 L 35.445312 22.277344 L 16.140625 24.761719 Z M 13.273438 2.492188 " clip-rule="nonzero"/></clipPath><clipPath id="f772f758b4"><path d="M 25 7 L 28 7 L 28 11 L 25 11 Z M 25 7 " clip-rule="nonzero"/></clipPath><clipPath id="fa39df2b14"><path d="M 13.273438 2.492188 L 32.574219 0.00390625 L 35.445312 22.277344 L 16.140625 24.761719 Z M 13.273438 2.492188 " clip-rule="nonzero"/></clipPath><clipPath id="39396e4d9e"><path d="M 13.273438 2.492188 L 32.574219 0.00390625 L 35.445312 22.277344 L 16.140625 24.761719 Z M 13.273438 2.492188 " clip-rule="nonzero"/></clipPath><clipPath id="fb4c78baeb"><path d="M 29 11 L 32 11 L 32 14 L 29 14 Z M 29 11 " clip-rule="nonzero"/></clipPath><clipPath id="1a9258a510"><path d="M 13.273438 2.492188 L 32.574219 0.00390625 L 35.445312 22.277344 L 16.140625 24.761719 Z M 13.273438 2.492188 " clip-rule="nonzero"/></clipPath><clipPath id="767082602f"><path d="M 13.273438 2.492188 L 32.574219 0.00390625 L 35.445312 22.277344 L 16.140625 24.761719 Z M 13.273438 2.492188 " clip-rule="nonzero"/></clipPath><clipPath id="22b06be1a1"><path d="M 20 2 L 24 2 L 24 7 L 20 7 Z M 20 2 " clip-rule="nonzero"/></clipPath><clipPath id="14ef94c4c5"><path d="M 13.273438 2.492188 L 32.574219 0.00390625 L 35.445312 22.277344 L 16.140625 24.761719 Z M 13.273438 2.492188 " clip-rule="nonzero"/></clipPath><clipPath id="ea7e96b771"><path d="M 13.273438 2.492188 L 32.574219 0.00390625 L 35.445312 22.277344 L 16.140625 24.761719 Z M 13.273438 2.492188 " clip-rule="nonzero"/></clipPath><clipPath id="115ea93c26"><path d="M 14 3 L 19 3 L 19 7 L 14 7 Z M 14 3 " clip-rule="nonzero"/></clipPath><clipPath id="44bfa37b75"><path d="M 13.273438 2.492188 L 32.574219 0.00390625 L 35.445312 22.277344 L 16.140625 24.761719 Z M 13.273438 2.492188 " clip-rule="nonzero"/></clipPath><clipPath id="8561c126fa"><path d="M 13.273438 2.492188 L 32.574219 0.00390625 L 35.445312 22.277344 L 16.140625 24.761719 Z M 13.273438 2.492188 " clip-rule="nonzero"/></clipPath><clipPath id="87ec5153f6"><path d="M 18 1 L 20 1 L 20 6 L 18 6 Z M 18 1 " clip-rule="nonzero"/></clipPath><clipPath id="cd5bfc28e7"><path d="M 13.273438 2.492188 L 32.574219 0.00390625 L 35.445312 22.277344 L 16.140625 24.761719 Z M 13.273438 2.492188 " clip-rule="nonzero"/></clipPath><clipPath id="3fcd74efd9"><path d="M 13.273438 2.492188 L 32.574219 0.00390625 L 35.445312 22.277344 L 16.140625 24.761719 Z M 13.273438 2.492188 " clip-rule="nonzero"/></clipPath></defs><g clip-path="url(#de204daee1)"><g clip-path="url(#97e60f33e7)"><g clip-path="url(#e2554e8054)"><path fill="#dff0fe" d="M 33.175781 11.980469 C 32.515625 11.476562 31.570312 11.597656 31.0625 12.253906 L 31.320312 11.917969 C 31.828125 11.257812 31.707031 10.3125 31.046875 9.804688 C 30.390625 9.296875 29.441406 9.417969 28.933594 10.074219 L 27.828125 11.507812 L 29.304688 9.597656 C 29.8125 8.941406 29.6875 7.992188 29.03125 7.484375 C 28.371094 6.976562 27.425781 7.097656 26.917969 7.757812 L 29.496094 4.414062 C 30.003906 3.757812 29.878906 2.808594 29.222656 2.300781 C 28.566406 1.792969 27.617188 1.914062 27.109375 2.574219 L 23.054688 7.824219 L 20.382812 11.289062 L 19.433594 12.519531 L 18.121094 9.164062 C 17.757812 8.234375 16.710938 7.773438 15.78125 8.136719 C 14.847656 8.503906 14.390625 9.550781 14.753906 10.480469 L 17.480469 17.464844 C 17.683594 18.183594 18.101562 18.847656 18.738281 19.339844 L 22.554688 22.285156 C 24.136719 23.507812 26.410156 23.214844 27.628906 21.632812 L 32.601562 15.191406 L 33.445312 14.097656 C 33.957031 13.4375 33.832031 12.488281 33.175781 11.980469 Z M 33.175781 11.980469 " fill-opacity="1" fill-rule="nonzero"/></g></g></g><g clip-path="url(#a8d5143de2)"><g clip-path="url(#54a3295235)"><g clip-path="url(#352bbf1ca4)"><path fill="#919da6" d="M 25.269531 23.308594 C 24.230469 23.445312 23.203125 23.164062 22.375 22.527344 L 18.554688 19.578125 C 17.894531 19.070312 17.425781 18.367188 17.191406 17.546875 L 14.472656 10.589844 C 14.265625 10.066406 14.277344 9.492188 14.503906 8.976562 C 14.730469 8.460938 15.144531 8.0625 15.671875 7.859375 C 15.832031 7.796875 16 7.753906 16.167969 7.730469 C 17.132812 7.605469 18.050781 8.152344 18.402344 9.054688 L 19.519531 11.914062 L 26.871094 2.390625 C 27.460938 1.625 28.644531 1.472656 29.40625 2.0625 C 29.789062 2.359375 30.03125 2.785156 30.09375 3.265625 C 30.15625 3.742188 30.027344 4.21875 29.734375 4.601562 L 27.980469 6.875 C 28.425781 6.839844 28.859375 6.972656 29.214844 7.246094 C 29.597656 7.539062 29.839844 7.96875 29.902344 8.445312 C 29.9375 8.707031 29.914062 8.96875 29.839844 9.210938 C 30.34375 9.132812 30.835938 9.257812 31.234375 9.5625 C 31.808594 10.007812 32.042969 10.738281 31.890625 11.402344 C 32.402344 11.300781 32.941406 11.421875 33.359375 11.742188 C 33.738281 12.039062 33.984375 12.464844 34.046875 12.945312 C 34.109375 13.421875 33.980469 13.898438 33.6875 14.28125 L 27.867188 21.816406 C 27.230469 22.644531 26.304688 23.175781 25.269531 23.308594 Z M 16.246094 8.328125 C 16.125 8.34375 16.003906 8.375 15.890625 8.417969 C 15.515625 8.566406 15.21875 8.847656 15.058594 9.21875 C 14.894531 9.585938 14.886719 9.996094 15.035156 10.371094 L 17.761719 17.355469 C 17.96875 18.078125 18.367188 18.671875 18.925781 19.101562 L 22.742188 22.046875 C 23.441406 22.589844 24.3125 22.824219 25.191406 22.710938 C 26.070312 22.597656 26.851562 22.148438 27.390625 21.449219 L 33.207031 13.914062 C 33.40625 13.65625 33.492188 13.339844 33.449219 13.019531 C 33.40625 12.703125 33.246094 12.417969 32.992188 12.222656 C 32.480469 11.828125 31.691406 11.929688 31.300781 12.4375 C 31.199219 12.570312 31.007812 12.59375 30.875 12.492188 C 30.746094 12.390625 30.722656 12.203125 30.824219 12.070312 C 30.824219 12.070312 30.824219 12.066406 30.824219 12.066406 L 31.082031 11.734375 C 31.488281 11.207031 31.390625 10.449219 30.863281 10.042969 C 30.355469 9.648438 29.566406 9.75 29.171875 10.261719 L 28.070312 11.691406 C 27.96875 11.824219 27.777344 11.847656 27.644531 11.746094 C 27.578125 11.695312 27.542969 11.621094 27.53125 11.546875 C 27.523438 11.46875 27.539062 11.390625 27.589844 11.324219 L 29.0625 9.414062 C 29.261719 9.160156 29.347656 8.84375 29.304688 8.523438 C 29.265625 8.203125 29.101562 7.917969 28.847656 7.722656 C 28.339844 7.332031 27.550781 7.429688 27.160156 7.9375 L 27.15625 7.941406 C 27.054688 8.070312 26.863281 8.097656 26.734375 7.996094 C 26.601562 7.894531 26.578125 7.703125 26.679688 7.570312 L 29.257812 4.230469 C 29.453125 3.976562 29.539062 3.660156 29.496094 3.339844 C 29.457031 3.019531 29.292969 2.738281 29.039062 2.539062 C 28.53125 2.148438 27.738281 2.25 27.347656 2.757812 L 19.671875 12.703125 C 19.605469 12.792969 19.496094 12.835938 19.390625 12.820312 C 19.28125 12.804688 19.191406 12.730469 19.152344 12.628906 L 17.839844 9.277344 C 17.589844 8.628906 16.933594 8.238281 16.246094 8.328125 Z M 16.246094 8.328125 " fill-opacity="1" fill-rule="nonzero"/></g></g></g><g clip-path="url(#f772f758b4)"><g clip-path="url(#fa39df2b14)"><g clip-path="url(#39396e4d9e)"><path fill="#919da6" d="M 25.382812 10.097656 C 25.304688 10.105469 25.226562 10.085938 25.160156 10.039062 C 25.027344 9.9375 25.003906 9.746094 25.105469 9.613281 L 26.6875 7.5625 C 26.789062 7.429688 26.980469 7.40625 27.113281 7.507812 C 27.242188 7.609375 27.269531 7.796875 27.167969 7.929688 L 25.582031 9.984375 C 25.53125 10.046875 25.460938 10.085938 25.382812 10.097656 Z M 25.382812 10.097656 " fill-opacity="1" fill-rule="nonzero"/></g></g></g><g clip-path="url(#fb4c78baeb)"><g clip-path="url(#1a9258a510)"><g clip-path="url(#767082602f)"><path fill="#919da6" d="M 30.15625 13.773438 C 30.078125 13.785156 29.996094 13.765625 29.929688 13.714844 C 29.800781 13.613281 29.777344 13.421875 29.878906 13.292969 L 31.21875 11.554688 C 31.320312 11.421875 31.507812 11.398438 31.640625 11.5 C 31.773438 11.601562 31.796875 11.789062 31.695312 11.921875 L 30.355469 13.660156 C 30.304688 13.726562 30.230469 13.765625 30.15625 13.773438 Z M 30.15625 13.773438 " fill-opacity="1" fill-rule="nonzero"/></g></g></g><g clip-path="url(#22b06be1a1)"><g clip-path="url(#14ef94c4c5)"><g clip-path="url(#ea7e96b771)"><path fill="#919da6" d="M 21.0625 6.519531 C 20.910156 6.539062 20.75 6.5 20.617188 6.398438 C 20.351562 6.195312 20.304688 5.816406 20.507812 5.550781 L 22.769531 2.617188 C 22.976562 2.355469 23.351562 2.304688 23.617188 2.511719 C 23.878906 2.714844 23.929688 3.089844 23.726562 3.355469 L 21.460938 6.289062 C 21.359375 6.421875 21.214844 6.5 21.0625 6.519531 Z M 21.0625 6.519531 " fill-opacity="1" fill-rule="nonzero"/></g></g></g><g clip-path="url(#115ea93c26)"><g clip-path="url(#44bfa37b75)"><g clip-path="url(#8561c126fa)"><path fill="#919da6" d="M 17.886719 6.925781 C 17.734375 6.945312 17.574219 6.90625 17.441406 6.804688 L 14.507812 4.542969 C 14.246094 4.339844 14.195312 3.960938 14.402344 3.699219 C 14.605469 3.433594 14.980469 3.386719 15.246094 3.589844 L 18.179688 5.851562 C 18.441406 6.054688 18.492188 6.433594 18.289062 6.699219 C 18.183594 6.828125 18.039062 6.90625 17.886719 6.925781 Z M 17.886719 6.925781 " fill-opacity="1" fill-rule="nonzero"/></g></g></g><g clip-path="url(#87ec5153f6)"><g clip-path="url(#cd5bfc28e7)"><g clip-path="url(#3fcd74efd9)"><path fill="#919da6" d="M 19.363281 5.855469 C 19.03125 5.898438 18.730469 5.667969 18.6875 5.335938 L 18.316406 2.449219 C 18.273438 2.117188 18.507812 1.816406 18.835938 1.773438 C 19.167969 1.730469 19.46875 1.964844 19.511719 2.296875 L 19.882812 5.183594 C 19.925781 5.511719 19.695312 5.8125 19.363281 5.855469 Z M 19.363281 5.855469 " fill-opacity="1" fill-rule="nonzero"/></g></g></g><g fill="#dff0fe" fill-opacity="0.4"><g transform="translate(34.404795, 29.086552)"><g><path d="M 1.65625 -6.074219 C 2.695312 -2.246094 6.144531 0.238281 9.878906 0.238281 C 10.613281 0.238281 11.34375 0.140625 12.078125 -0.046875 C 15.90625 -1.085938 18.386719 -4.539062 18.386719 -8.273438 C 18.386719 -9.003906 18.292969 -9.738281 18.105469 -10.46875 C 17.0625 -14.296875 13.613281 -16.78125 9.878906 -16.78125 C 9.144531 -16.78125 8.414062 -16.683594 7.679688 -16.496094 C 3.851562 -15.457031 1.371094 -12.007812 1.371094 -8.273438 C 1.371094 -7.539062 1.464844 -6.804688 1.65625 -6.074219 Z M 6.453125 -7.351562 C 6.027344 -8.910156 5.835938 -10.398438 5.835938 -11.722656 C 5.835938 -13.898438 6.5 -15.503906 7.726562 -15.789062 C 9.644531 -16.261719 12.125 -13.304688 13.304688 -9.195312 C 13.730469 -7.65625 13.921875 -6.144531 13.921875 -4.820312 C 13.921875 -2.671875 13.28125 -1.0625 12.03125 -0.757812 C 10.117188 -0.285156 7.632812 -3.238281 6.453125 -7.351562 Z M 6.453125 -7.351562 "/></g></g></g><g fill="#dff0fe" fill-opacity="0.4"><g transform="translate(54.161419, 29.086552)"><g><path d="M 0.472656 -16.542969 L 0.472656 -15.835938 L 0.945312 -15.835938 C 2.601562 -15.835938 3.308594 -15.265625 3.308594 -13.945312 L 3.308594 -2.601562 C 3.308594 -1.277344 2.601562 -0.710938 0.945312 -0.710938 L 0.472656 -0.710938 L 0.472656 0 L 11.109375 0 L 11.109375 -0.710938 L 10.636719 -0.710938 C 8.980469 -0.710938 8.273438 -1.277344 8.273438 -2.601562 L 8.273438 -10.636719 C 8.273438 -13.328125 9.667969 -15.597656 11.320312 -15.597656 C 12.550781 -15.597656 13.472656 -14.347656 13.472656 -10.636719 L 13.472656 -1.183594 C 13.472656 -0.851562 13.257812 -0.710938 12.761719 -0.710938 L 12.289062 -0.710938 L 12.289062 0 L 21.269531 0 L 21.269531 -0.710938 L 20.796875 -0.710938 C 19.144531 -0.710938 18.433594 -1.277344 18.433594 -2.601562 L 18.433594 -10.636719 C 18.433594 -15.265625 15.574219 -16.78125 12.953125 -16.78125 C 10.28125 -16.78125 8.839844 -15.339844 8.199219 -13.402344 C 7.894531 -15.667969 6.6875 -16.542969 5.199219 -16.542969 Z M 0.472656 -16.542969 "/></g></g></g><g fill="#dff0fe" fill-opacity="0.4"><g transform="translate(75.61958, 29.086552)"><g><path d="M 6.453125 -9.21875 C 3.664062 -9.21875 0.851562 -8.273438 0.851562 -4.75 C 0.851562 -1.230469 3.664062 0.238281 6.359375 0.238281 C 8.980469 0.238281 10.421875 -1.183594 11.0625 -3.097656 C 11.320312 -0.945312 12.335938 -0.140625 13.636719 0.1875 C 15.882812 0.78125 17.820312 -0.140625 19.191406 -1.441406 L 18.835938 -1.867188 C 18.03125 -1.253906 17.84375 -0.992188 17.253906 -0.992188 C 16.992188 -0.992188 16.496094 -1.039062 16.210938 -1.300781 C 15.976562 -1.511719 15.976562 -1.867188 15.976562 -2.601562 L 15.976562 -10.636719 C 15.976562 -15.667969 12.503906 -16.78125 8.933594 -16.78125 C 5.695312 -16.78125 1.9375 -15.859375 1.9375 -13.257812 C 1.9375 -11.746094 3.214844 -10.707031 4.46875 -10.707031 C 5.765625 -10.707031 6.925781 -11.839844 6.925781 -13.1875 C 6.925781 -14.347656 6.050781 -15.410156 4.964844 -15.410156 L 4.726562 -15.410156 C 6.050781 -15.859375 7.679688 -16.070312 8.601562 -16.070312 C 10.1875 -16.070312 11.011719 -15.457031 11.011719 -10.636719 L 11.011719 -9.785156 C 9.570312 -9.242188 8.222656 -9.21875 6.453125 -9.21875 Z M 7.917969 -0.945312 C 6.757812 -0.945312 5.8125 -1.960938 5.8125 -4.867188 C 5.8125 -7.609375 6.640625 -8.460938 8.035156 -8.507812 C 9.144531 -8.53125 9.878906 -8.578125 11.011719 -9.074219 L 11.011719 -5.695312 C 10.941406 -3.046875 9.570312 -0.945312 7.917969 -0.945312 Z M 7.917969 -0.945312 "/></g></g></g><g fill="#dff0fe" fill-opacity="0.4"><g transform="translate(94.241856, 29.086552)"><g><path d="M 11.273438 -15.835938 L 11.273438 -16.542969 L 0.636719 -16.542969 L 0.636719 -15.835938 L 1.109375 -15.835938 C 2.765625 -15.835938 3.472656 -15.265625 3.472656 -13.945312 L 3.472656 -2.601562 C 3.472656 -1.277344 2.765625 -0.710938 1.109375 -0.710938 L 0.636719 -0.710938 L 0.636719 0 L 11.273438 0 L 11.273438 -0.710938 L 10.800781 -0.710938 C 9.144531 -0.710938 8.4375 -1.277344 8.4375 -2.601562 L 8.4375 -13.945312 C 8.4375 -15.265625 9.144531 -15.835938 10.800781 -15.835938 Z M 11.273438 -15.835938 "/></g></g></g><g fill="#dff0fe" fill-opacity="1"><g transform="translate(33.360209, 28.041966)"><g><path d="M 1.65625 -6.074219 C 2.695312 -2.246094 6.144531 0.238281 9.878906 0.238281 C 10.613281 0.238281 11.34375 0.140625 12.078125 -0.046875 C 15.90625 -1.085938 18.386719 -4.539062 18.386719 -8.273438 C 18.386719 -9.003906 18.292969 -9.738281 18.105469 -10.46875 C 17.0625 -14.296875 13.613281 -16.78125 9.878906 -16.78125 C 9.144531 -16.78125 8.414062 -16.683594 7.679688 -16.496094 C 3.851562 -15.457031 1.371094 -12.007812 1.371094 -8.273438 C 1.371094 -7.539062 1.464844 -6.804688 1.65625 -6.074219 Z M 6.453125 -7.351562 C 6.027344 -8.910156 5.835938 -10.398438 5.835938 -11.722656 C 5.835938 -13.898438 6.5 -15.503906 7.726562 -15.789062 C 9.644531 -16.261719 12.125 -13.304688 13.304688 -9.195312 C 13.730469 -7.65625 13.921875 -6.144531 13.921875 -4.820312 C 13.921875 -2.671875 13.28125 -1.0625 12.03125 -0.757812 C 10.117188 -0.285156 7.632812 -3.238281 6.453125 -7.351562 Z M 6.453125 -7.351562 "/></g></g></g><g fill="#dff0fe" fill-opacity="1"><g transform="translate(53.116834, 28.041966)"><g><path d="M 0.472656 -16.542969 L 0.472656 -15.835938 L 0.945312 -15.835938 C 2.601562 -15.835938 3.308594 -15.265625 3.308594 -13.945312 L 3.308594 -2.601562 C 3.308594 -1.277344 2.601562 -0.710938 0.945312 -0.710938 L 0.472656 -0.710938 L 0.472656 0 L 11.109375 0 L 11.109375 -0.710938 L 10.636719 -0.710938 C 8.980469 -0.710938 8.273438 -1.277344 8.273438 -2.601562 L 8.273438 -10.636719 C 8.273438 -13.328125 9.667969 -15.597656 11.320312 -15.597656 C 12.550781 -15.597656 13.472656 -14.347656 13.472656 -10.636719 L 13.472656 -1.183594 C 13.472656 -0.851562 13.257812 -0.710938 12.761719 -0.710938 L 12.289062 -0.710938 L 12.289062 0 L 21.269531 0 L 21.269531 -0.710938 L 20.796875 -0.710938 C 19.144531 -0.710938 18.433594 -1.277344 18.433594 -2.601562 L 18.433594 -10.636719 C 18.433594 -15.265625 15.574219 -16.78125 12.953125 -16.78125 C 10.28125 -16.78125 8.839844 -15.339844 8.199219 -13.402344 C 7.894531 -15.667969 6.6875 -16.542969 5.199219 -16.542969 Z M 0.472656 -16.542969 "/></g></g></g><g fill="#dff0fe" fill-opacity="1"><g transform="translate(74.574995, 28.041966)"><g><path d="M 6.453125 -9.21875 C 3.664062 -9.21875 0.851562 -8.273438 0.851562 -4.75 C 0.851562 -1.230469 3.664062 0.238281 6.359375 0.238281 C 8.980469 0.238281 10.421875 -1.183594 11.0625 -3.097656 C 11.320312 -0.945312 12.335938 -0.140625 13.636719 0.1875 C 15.882812 0.78125 17.820312 -0.140625 19.191406 -1.441406 L 18.835938 -1.867188 C 18.03125 -1.253906 17.84375 -0.992188 17.253906 -0.992188 C 16.992188 -0.992188 16.496094 -1.039062 16.210938 -1.300781 C 15.976562 -1.511719 15.976562 -1.867188 15.976562 -2.601562 L 15.976562 -10.636719 C 15.976562 -15.667969 12.503906 -16.78125 8.933594 -16.78125 C 5.695312 -16.78125 1.9375 -15.859375 1.9375 -13.257812 C 1.9375 -11.746094 3.214844 -10.707031 4.46875 -10.707031 C 5.765625 -10.707031 6.925781 -11.839844 6.925781 -13.1875 C 6.925781 -14.347656 6.050781 -15.410156 4.964844 -15.410156 L 4.726562 -15.410156 C 6.050781 -15.859375 7.679688 -16.070312 8.601562 -16.070312 C 10.1875 -16.070312 11.011719 -15.457031 11.011719 -10.636719 L 11.011719 -9.785156 C 9.570312 -9.242188 8.222656 -9.21875 6.453125 -9.21875 Z M 7.917969 -0.945312 C 6.757812 -0.945312 5.8125 -1.960938 5.8125 -4.867188 C 5.8125 -7.609375 6.640625 -8.460938 8.035156 -8.507812 C 9.144531 -8.53125 9.878906 -8.578125 11.011719 -9.074219 L 11.011719 -5.695312 C 10.941406 -3.046875 9.570312 -0.945312 7.917969 -0.945312 Z M 7.917969 -0.945312 "/></g></g></g><g fill="#dff0fe" fill-opacity="1"><g transform="translate(93.197271, 28.041966)"><g><path d="M 11.273438 -15.835938 L 11.273438 -16.542969 L 0.636719 -16.542969 L 0.636719 -15.835938 L 1.109375 -15.835938 C 2.765625 -15.835938 3.472656 -15.265625 3.472656 -13.945312 L 3.472656 -2.601562 C 3.472656 -1.277344 2.765625 -0.710938 1.109375 -0.710938 L 0.636719 -0.710938 L 0.636719 0 L 11.273438 0 L 11.273438 -0.710938 L 10.800781 -0.710938 C 9.144531 -0.710938 8.4375 -1.277344 8.4375 -2.601562 L 8.4375 -13.945312 C 8.4375 -15.265625 9.144531 -15.835938 10.800781 -15.835938 Z M 11.273438 -15.835938 "/></g></g></g></svg>