<svg xmlns="http://www.w3.org/2000/svg" xmlns:xlink="http://www.w3.org/1999/xlink" width="50" zoomAndPan="magnify" viewBox="0 0 37.5 32.999998" height="44" preserveAspectRatio="xMidYMid meet" version="1.0"><defs><clipPath id="1a37219ec5"><path d="M 5 1 L 33 1 L 33 32 L 5 32 Z M 5 1 " clip-rule="nonzero"/></clipPath><clipPath id="8819812c99"><path d="M 3.257812 2.554688 L 30.417969 -0.945312 L 34.484375 30.621094 L 7.324219 34.121094 Z M 3.257812 2.554688 " clip-rule="nonzero"/></clipPath><clipPath id="ce78047e25"><path d="M 3.257812 2.554688 L 30.417969 -0.945312 L 34.484375 30.621094 L 7.324219 34.121094 Z M 3.257812 2.554688 " clip-rule="nonzero"/></clipPath><clipPath id="784d97bc37"><path d="M 3.257812 2.554688 L 30.417969 -0.945312 L 34.484375 30.621094 L 7.324219 34.121094 Z M 3.257812 2.554688 " clip-rule="nonzero"/></clipPath><clipPath id="ecaefec426"><path d="M 4 1 L 33 1 L 33 32.78125 L 4 32.78125 Z M 4 1 " clip-rule="nonzero"/></clipPath><clipPath id="87d3cdc16f"><path d="M 3.257812 2.554688 L 30.417969 -0.945312 L 34.484375 30.621094 L 7.324219 34.121094 Z M 3.257812 2.554688 " clip-rule="nonzero"/></clipPath><clipPath id="fce79c405e"><path d="M 3.257812 2.554688 L 30.417969 -0.945312 L 34.484375 30.621094 L 7.324219 34.121094 Z M 3.257812 2.554688 " clip-rule="nonzero"/></clipPath><clipPath id="ca1aacd952"><path d="M 3.257812 2.554688 L 30.417969 -0.945312 L 34.484375 30.621094 L 7.324219 34.121094 Z M 3.257812 2.554688 " clip-rule="nonzero"/></clipPath><clipPath id="9af28f7954"><path d="M 20 9 L 24 9 L 24 14 L 20 14 Z M 20 9 " clip-rule="nonzero"/></clipPath><clipPath id="0bae3a7de3"><path d="M 3.257812 2.554688 L 30.417969 -0.945312 L 34.484375 30.621094 L 7.324219 34.121094 Z M 3.257812 2.554688 " clip-rule="nonzero"/></clipPath><clipPath id="960acfdbb6"><path d="M 3.257812 2.554688 L 30.417969 -0.945312 L 34.484375 30.621094 L 7.324219 34.121094 Z M 3.257812 2.554688 " clip-rule="nonzero"/></clipPath><clipPath id="b96507cb54"><path d="M 3.257812 2.554688 L 30.417969 -0.945312 L 34.484375 30.621094 L 7.324219 34.121094 Z M 3.257812 2.554688 " clip-rule="nonzero"/></clipPath><clipPath id="0c0351e21c"><path d="M 26 15 L 30 15 L 30 19 L 26 19 Z M 26 15 " clip-rule="nonzero"/></clipPath><clipPath id="08abaa1bda"><path d="M 3.257812 2.554688 L 30.417969 -0.945312 L 34.484375 30.621094 L 7.324219 34.121094 Z M 3.257812 2.554688 " clip-rule="nonzero"/></clipPath><clipPath id="dc0e30f1c1"><path d="M 3.257812 2.554688 L 30.417969 -0.945312 L 34.484375 30.621094 L 7.324219 34.121094 Z M 3.257812 2.554688 " clip-rule="nonzero"/></clipPath><clipPath id="3204e04c8e"><path d="M 3.257812 2.554688 L 30.417969 -0.945312 L 34.484375 30.621094 L 7.324219 34.121094 Z M 3.257812 2.554688 " clip-rule="nonzero"/></clipPath><clipPath id="9a93856eb7"><path d="M 13 2 L 19 2 L 19 9 L 13 9 Z M 13 2 " clip-rule="nonzero"/></clipPath><clipPath id="a3dfef4ce1"><path d="M 3.257812 2.554688 L 30.417969 -0.945312 L 34.484375 30.621094 L 7.324219 34.121094 Z M 3.257812 2.554688 " clip-rule="nonzero"/></clipPath><clipPath id="52a9ef7230"><path d="M 3.257812 2.554688 L 30.417969 -0.945312 L 34.484375 30.621094 L 7.324219 34.121094 Z M 3.257812 2.554688 " clip-rule="nonzero"/></clipPath><clipPath id="dee6392cdc"><path d="M 3.257812 2.554688 L 30.417969 -0.945312 L 34.484375 30.621094 L 7.324219 34.121094 Z M 3.257812 2.554688 " clip-rule="nonzero"/></clipPath><clipPath id="d393762069"><path d="M 4 3 L 11 3 L 11 9 L 4 9 Z M 4 3 " clip-rule="nonzero"/></clipPath><clipPath id="6f30f1ea91"><path d="M 3.257812 2.554688 L 30.417969 -0.945312 L 34.484375 30.621094 L 7.324219 34.121094 Z M 3.257812 2.554688 " clip-rule="nonzero"/></clipPath><clipPath id="724e0b690f"><path d="M 3.257812 2.554688 L 30.417969 -0.945312 L 34.484375 30.621094 L 7.324219 34.121094 Z M 3.257812 2.554688 " clip-rule="nonzero"/></clipPath><clipPath id="7345aad37a"><path d="M 3.257812 2.554688 L 30.417969 -0.945312 L 34.484375 30.621094 L 7.324219 34.121094 Z M 3.257812 2.554688 " clip-rule="nonzero"/></clipPath><clipPath id="d2db8f91b6"><path d="M 10 1 L 13 1 L 13 8 L 10 8 Z M 10 1 " clip-rule="nonzero"/></clipPath><clipPath id="e5a31c2b21"><path d="M 3.257812 2.554688 L 30.417969 -0.945312 L 34.484375 30.621094 L 7.324219 34.121094 Z M 3.257812 2.554688 " clip-rule="nonzero"/></clipPath><clipPath id="cb117d12e2"><path d="M 3.257812 2.554688 L 30.417969 -0.945312 L 34.484375 30.621094 L 7.324219 34.121094 Z M 3.257812 2.554688 " clip-rule="nonzero"/></clipPath><clipPath id="a5ff848e09"><path d="M 3.257812 2.554688 L 30.417969 -0.945312 L 34.484375 30.621094 L 7.324219 34.121094 Z M 3.257812 2.554688 " clip-rule="nonzero"/></clipPath></defs><g clip-path="url(#1a37219ec5)"><g clip-path="url(#8819812c99)"><g clip-path="url(#ce78047e25)"><g clip-path="url(#784d97bc37)"><path fill="#dff0fe" d="M 31.597656 16.152344 C 30.660156 15.425781 29.3125 15.597656 28.589844 16.539062 L 28.957031 16.054688 C 29.679688 15.117188 29.503906 13.757812 28.570312 13.03125 C 27.632812 12.304688 26.28125 12.476562 25.558594 13.417969 L 23.988281 15.464844 L 26.082031 12.738281 C 26.804688 11.796875 26.628906 10.441406 25.695312 9.710938 C 24.757812 8.984375 23.40625 9.160156 22.683594 10.097656 L 26.351562 5.324219 C 27.074219 4.382812 26.898438 3.027344 25.960938 2.296875 C 25.023438 1.570312 23.675781 1.746094 22.953125 2.6875 L 17.1875 10.191406 L 13.386719 15.144531 L 12.035156 16.910156 L 10.164062 12.109375 C 9.644531 10.777344 8.152344 10.117188 6.828125 10.636719 C 5.503906 11.15625 4.851562 12.65625 5.367188 13.988281 L 9.257812 23.980469 C 9.550781 25.007812 10.144531 25.960938 11.050781 26.664062 L 16.488281 30.882812 C 18.742188 32.628906 21.976562 32.214844 23.710938 29.953125 L 30.785156 20.738281 L 31.984375 19.175781 C 32.710938 18.234375 32.535156 16.878906 31.597656 16.152344 Z M 31.597656 16.152344 " fill-opacity="1" fill-rule="nonzero"/></g></g></g></g><g clip-path="url(#ecaefec426)"><g clip-path="url(#87d3cdc16f)"><g clip-path="url(#fce79c405e)"><g clip-path="url(#ca1aacd952)"><path fill="#4788c7" d="M 20.351562 32.347656 C 18.875 32.539062 17.410156 32.140625 16.230469 31.222656 L 10.792969 27.007812 C 9.851562 26.277344 9.179688 25.273438 8.847656 24.101562 L 4.96875 14.144531 C 4.675781 13.394531 4.695312 12.574219 5.015625 11.835938 C 5.335938 11.097656 5.925781 10.527344 6.671875 10.234375 C 6.902344 10.144531 7.140625 10.085938 7.382812 10.050781 C 8.753906 9.875 10.0625 10.65625 10.566406 11.953125 L 12.160156 16.042969 L 22.613281 2.421875 C 23.453125 1.332031 25.136719 1.113281 26.222656 1.957031 C 26.769531 2.378906 27.117188 2.992188 27.207031 3.675781 C 27.292969 4.363281 27.109375 5.042969 26.691406 5.585938 L 24.195312 8.839844 C 24.828125 8.792969 25.449219 8.980469 25.957031 9.371094 C 26.5 9.792969 26.847656 10.402344 26.9375 11.089844 C 26.984375 11.464844 26.953125 11.835938 26.84375 12.183594 C 27.5625 12.074219 28.265625 12.25 28.832031 12.691406 C 29.652344 13.328125 29.984375 14.367188 29.769531 15.324219 C 30.5 15.175781 31.265625 15.347656 31.859375 15.808594 C 32.402344 16.230469 32.753906 16.839844 32.839844 17.527344 C 32.929688 18.210938 32.746094 18.890625 32.328125 19.4375 L 24.050781 30.214844 C 23.144531 31.402344 21.828125 32.160156 20.351562 32.347656 Z M 7.496094 10.90625 C 7.320312 10.929688 7.152344 10.972656 6.988281 11.039062 C 6.453125 11.246094 6.03125 11.652344 5.800781 12.179688 C 5.574219 12.707031 5.5625 13.292969 5.769531 13.832031 L 9.660156 23.824219 C 9.957031 24.859375 10.523438 25.710938 11.316406 26.324219 L 16.753906 30.542969 C 17.753906 31.316406 18.992188 31.652344 20.242188 31.492188 C 21.492188 31.332031 22.605469 30.691406 23.375 29.6875 L 31.648438 18.910156 C 31.925781 18.546875 32.046875 18.09375 31.988281 17.636719 C 31.929688 17.179688 31.699219 16.773438 31.335938 16.492188 C 30.613281 15.929688 29.488281 16.074219 28.929688 16.800781 C 28.785156 16.992188 28.515625 17.023438 28.328125 16.878906 C 28.140625 16.734375 28.105469 16.464844 28.25 16.273438 C 28.25 16.273438 28.25 16.273438 28.25 16.269531 L 28.617188 15.792969 C 29.195312 15.039062 29.058594 13.953125 28.308594 13.375 C 27.582031 12.8125 26.457031 12.957031 25.898438 13.683594 L 24.328125 15.730469 C 24.183594 15.917969 23.914062 15.953125 23.726562 15.808594 C 23.632812 15.734375 23.578125 15.628906 23.5625 15.519531 C 23.550781 15.410156 23.578125 15.296875 23.648438 15.203125 L 25.742188 12.472656 C 26.023438 12.109375 26.144531 11.65625 26.085938 11.199219 C 26.027344 10.742188 25.792969 10.335938 25.433594 10.054688 C 24.710938 9.492188 23.585938 9.636719 23.027344 10.359375 L 23.027344 10.363281 C 22.882812 10.550781 22.613281 10.585938 22.425781 10.441406 C 22.238281 10.296875 22.203125 10.023438 22.347656 9.835938 L 26.011719 5.058594 C 26.292969 4.695312 26.414062 4.242188 26.355469 3.785156 C 26.296875 3.328125 26.0625 2.921875 25.699219 2.640625 C 24.976562 2.078125 23.851562 2.222656 23.292969 2.949219 L 12.375 17.171875 C 12.28125 17.296875 12.125 17.359375 11.972656 17.335938 C 11.820312 17.3125 11.691406 17.210938 11.636719 17.066406 L 9.765625 12.265625 C 9.40625 11.339844 8.472656 10.78125 7.496094 10.90625 Z M 7.496094 10.90625 " fill-opacity="1" fill-rule="nonzero"/></g></g></g></g><g clip-path="url(#9af28f7954)"><g clip-path="url(#0bae3a7de3)"><g clip-path="url(#960acfdbb6)"><g clip-path="url(#b96507cb54)"><path fill="#4788c7" d="M 20.503906 13.449219 C 20.394531 13.460938 20.28125 13.433594 20.183594 13.363281 C 19.996094 13.214844 19.964844 12.945312 20.109375 12.757812 L 22.359375 9.820312 C 22.503906 9.632812 22.773438 9.597656 22.960938 9.746094 C 23.148438 9.890625 23.183594 10.160156 23.039062 10.347656 L 20.789062 13.285156 C 20.714844 13.378906 20.613281 13.433594 20.503906 13.449219 Z M 20.503906 13.449219 " fill-opacity="1" fill-rule="nonzero"/></g></g></g></g><g clip-path="url(#0c0351e21c)"><g clip-path="url(#08abaa1bda)"><g clip-path="url(#dc0e30f1c1)"><g clip-path="url(#3204e04c8e)"><path fill="#4788c7" d="M 27.300781 18.710938 C 27.191406 18.726562 27.078125 18.699219 26.980469 18.625 C 26.792969 18.480469 26.757812 18.207031 26.902344 18.019531 L 28.8125 15.535156 C 28.957031 15.347656 29.226562 15.3125 29.414062 15.457031 C 29.601562 15.601562 29.636719 15.875 29.492188 16.0625 L 27.582031 18.546875 C 27.511719 18.640625 27.410156 18.699219 27.300781 18.710938 Z M 27.300781 18.710938 " fill-opacity="1" fill-rule="nonzero"/></g></g></g></g><g clip-path="url(#9a93856eb7)"><g clip-path="url(#a3dfef4ce1)"><g clip-path="url(#52a9ef7230)"><g clip-path="url(#dee6392cdc)"><path fill="#4788c7" d="M 14.347656 8.324219 C 14.128906 8.351562 13.902344 8.296875 13.714844 8.148438 C 13.339844 7.859375 13.269531 7.316406 13.558594 6.941406 L 16.777344 2.746094 C 17.066406 2.371094 17.605469 2.300781 17.980469 2.59375 C 18.359375 2.882812 18.425781 3.425781 18.136719 3.800781 L 14.917969 7.996094 C 14.773438 8.183594 14.566406 8.296875 14.347656 8.324219 Z M 14.347656 8.324219 " fill-opacity="1" fill-rule="nonzero"/></g></g></g></g><g clip-path="url(#d393762069)"><g clip-path="url(#6f30f1ea91)"><g clip-path="url(#724e0b690f)"><g clip-path="url(#7345aad37a)"><path fill="#4788c7" d="M 9.828125 8.90625 C 9.609375 8.933594 9.382812 8.878906 9.195312 8.730469 L 5.019531 5.492188 C 4.640625 5.203125 4.574219 4.660156 4.863281 4.285156 C 5.152344 3.90625 5.691406 3.835938 6.066406 4.128906 L 10.242188 7.367188 C 10.617188 7.660156 10.6875 8.199219 10.398438 8.578125 C 10.253906 8.765625 10.046875 8.878906 9.828125 8.90625 Z M 9.828125 8.90625 " fill-opacity="1" fill-rule="nonzero"/></g></g></g></g><g clip-path="url(#d2db8f91b6)"><g clip-path="url(#e5a31c2b21)"><g clip-path="url(#cb117d12e2)"><g clip-path="url(#a5ff848e09)"><path fill="#4788c7" d="M 11.929688 7.375 C 11.457031 7.4375 11.027344 7.101562 10.96875 6.628906 L 10.4375 2.5 C 10.375 2.027344 10.707031 1.597656 11.175781 1.535156 C 11.648438 1.476562 12.078125 1.808594 12.136719 2.28125 L 12.671875 6.410156 C 12.730469 6.882812 12.398438 7.316406 11.929688 7.375 Z M 11.929688 7.375 " fill-opacity="1" fill-rule="nonzero"/></g></g></g></g></svg>